<?xml version="1.0" encoding="UTF-8" standalone="no"?>
<!-- Created with Inkscape (http://www.inkscape.org/) -->

<svg
   xmlns:dc="http://purl.org/dc/elements/1.1/"
   xmlns:cc="http://creativecommons.org/ns#"
   xmlns:rdf="http://www.w3.org/1999/02/22-rdf-syntax-ns#"
   xmlns:svg="http://www.w3.org/2000/svg"
   xmlns="http://www.w3.org/2000/svg"
   xmlns:sodipodi="http://sodipodi.sourceforge.net/DTD/sodipodi-0.dtd"
   xmlns:inkscape="http://www.inkscape.org/namespaces/inkscape"
   width="236.16194"
   height="187.41574"
   viewBox="0 0 236.16194 187.41574"
   id="svg2"
   version="1.1"
   inkscape:version="0.91 r13725"
   sodipodi:docname="metro-logo.svg">
  <defs
     id="defs4" />
  <sodipodi:namedview
     id="base"
     pagecolor="#ffffff"
     bordercolor="#666666"
     borderopacity="1.0"
     inkscape:pageopacity="0.0"
     inkscape:pageshadow="2"
     inkscape:zoom="2.8"
     inkscape:cx="145.93138"
     inkscape:cy="36.191889"
     inkscape:document-units="px"
     inkscape:current-layer="g3451"
     showgrid="false"
     units="px"
     width="300px"
     showguides="true"
     inkscape:window-width="1364"
     inkscape:window-height="766"
     inkscape:window-x="0"
     inkscape:window-y="0"
     inkscape:window-maximized="0"
     fit-margin-top="0"
     fit-margin-left="0"
     fit-margin-right="0"
     fit-margin-bottom="0" />
  <metadata
     id="metadata7">
    <rdf:RDF>
      <cc:Work
         rdf:about="">
        <dc:format>image/svg+xml</dc:format>
        <dc:type
           rdf:resource="http://purl.org/dc/dcmitype/StillImage" />
        <dc:title />
      </cc:Work>
    </rdf:RDF>
  </metadata>
  <g
     inkscape:label="Ebene 1"
     inkscape:groupmode="layer"
     id="layer1"
     transform="translate(-30.30778,-797.413)"
     style="display:inline">
    <g
       id="g3451"
       transform="translate(-6.5659916,5.0507627)">
      <path
         style="fill:#F5E611"
         d="m 41.850731,973.05644 c -5.627534,-5.99022 -3.53776,-8.10804 19.06862,-19.32444 11.217865,-5.56587 21.305495,-10.11976 22.416956,-10.11976 1.111461,0 2.92386,0.90302 4.027554,2.00671 4.165492,4.1655 -1.500558,12.05674 -10.596449,14.75793 -6.60316,1.96092 -15.921615,6.50832 -24.550631,11.98069 -3.256284,2.06507 -6.274838,3.75467 -6.707898,3.75467 -0.43306,0 -2.079229,-1.37511 -3.658152,-3.0558 z m 198.059989,0.0726 c -7.83287,-3.70817 -26.29864,-17.47506 -29.02903,-21.64216 -1.50324,-2.29423 -1.70492,-3.67605 -0.75729,-5.18833 2.3186,-3.70015 6.03543,-2.94455 13.86382,2.81838 4.20005,3.0919 10.62582,7.13554 14.27947,8.98585 12.93041,6.5483 18.04939,12.18071 14.71824,16.1945 -2.1358,2.57349 -5.8777,2.23915 -13.07521,-1.16824 z M 117.66579,960.44472 c -6.49447,-2.38344 -9.91765,-5.29447 -16.31586,-13.87473 -8.382055,-11.24069 -15.406074,-28.09042 -17.139338,-41.11512 -1.70655,-12.82395 -1.229131,-17.70136 2.759746,-28.19407 5.467343,-14.38181 13.782142,-21.05481 37.286912,-29.9244 9.91999,-3.74333 11.67576,-4.00618 27.5,-4.11699 13.54838,-0.0949 17.67974,0.29535 20.81449,1.966 6.15343,3.27945 7.32863,9.46916 2.87325,15.13326 -2.54367,3.23376 -2.86715,3.29392 -17.8125,3.31271 -8.37197,0.0105 -15.90666,0.45433 -16.74374,0.98622 -0.83709,0.5319 -5.44643,3.20735 -5.44643,3.20735 -11.78289,40.59588 7.8406,44.12661 3.9505,72.03729 l 3.75852,0 c 2.06719,0 5.27747,-0.74975 7.13395,-1.66611 1.85649,-0.91637 7.24656,-2.35027 11.97794,-3.18644 14.17845,-2.50574 25.21179,-8.57584 35.74676,-19.66642 l 9.10596,-9.58622 -0.63722,-10.2138 c -0.75353,-12.07808 -2.96328,-17.00085 -9.6041,-21.39554 -7.06279,-4.67393 -8.36371,-11.12431 -3.27073,-16.21729 4.03618,-4.03617 9.67618,-3.86398 16.87224,0.51512 10.55131,6.4209 16.2543,20.55189 16.29005,40.36384 0.026,14.37994 -2.95162,20.17695 -17.37797,33.83297 -8.57772,8.11969 -12.98199,11.19953 -21.9775,15.36847 -6.1875,2.86757 -15.1875,5.93761 -20,6.8223 -4.8125,0.88467 -9.35905,2.0877 -10.10344,2.67336 -1.3401,1.05436 -27.58018,4.90785 -32.39656,4.7576 -1.375,-0.0429 -4.63522,-0.86161 -7.24493,-1.81936 z m 12.38339,-20.76413 c 17.54785,-32.09621 5.39314,-71.85564 -5.86705,-71.11299 -4.84575,3.15696 -15.05561,9.816 -17.78953,15.55564 l -3.51812,7.38601 1.83314,11.58683 c 3.05094,19.28412 15.16738,39.26616 23.80971,39.26616 3.2375,0 3.31505,-0.13576 1.53185,-2.68165 z m 108.06156,-10.40627 c -9.06425,-3.07528 -11.51912,-5.54089 -8.79037,-8.82883 1.3979,-1.68436 3.10731,-1.98774 8.22436,-1.45961 11.17942,1.15381 18.12952,6.81596 14.1912,11.56135 -1.89205,2.27977 -3.63323,2.11711 -13.62519,-1.27292 z M 60.219866,926.45384 c -4.133579,-4.56755 -1.78,-7.53929 7.317002,-9.2388 6.926044,-1.29392 10.498849,0.245 10.498849,4.5222 0,3.59756 -2.860824,5.37963 -10.265448,6.39454 -4.320223,0.59215 -5.792006,0.26507 -7.550403,-1.67794 z m -3.79395,-31.01891 c -6.041641,-0.95349 -11.526016,-2.0681 -12.1875,-2.47692 -1.999584,-1.23581 -1.354365,-5.07104 1.249576,-7.42758 2.171008,-1.96473 3.353815,-2.06328 10.3125,-0.8592 4.323124,0.74804 10.258182,1.71022 13.18902,2.13817 8.980499,1.3113 10.055111,8.08668 1.546205,9.74874 -1.71875,0.33573 -8.068161,-0.16972 -14.109801,-1.12321 z m 179.359804,-0.82269 c -2.18128,-2.18128 -1.83653,-5.73218 0.6875,-7.08117 1.20312,-0.64303 8.21308,-2.11344 15.5777,-3.26759 12.76468,-2.00043 13.5676,-1.99367 17.1875,0.14466 2.08851,1.23372 3.7973,3.05934 3.7973,4.05694 0,0.99761 -0.37623,1.4376 -0.83607,0.97777 -0.45983,-0.45984 -1.72546,-0.0756 -2.8125,0.85392 -1.08703,0.92949 -7.71663,2.61822 -14.73245,3.75273 -15.2274,2.46238 -16.9189,2.51283 -18.86898,0.56274 z M 75.848217,861.12594 c -2.234375,-1.36232 -4.0625,-3.01877 -4.0625,-3.68098 0,-0.66222 -4.756769,-6.20258 -10.570598,-12.31192 -10.612546,-11.15197 -19.429402,-22.89076 -19.429402,-25.86835 0,-0.87799 0.843241,-2.29617 1.87387,-3.15151 2.745505,-2.27857 8.357394,0.40953 11.199456,5.36454 1.264865,2.20523 6.293936,8.27904 11.175714,13.49735 11.325242,12.10594 20.005535,22.12271 20.556636,23.72167 0.630611,1.82965 -2.289675,4.91624 -4.646232,4.91083 -1.118944,-0.003 -3.862569,-1.1193 -6.096944,-2.48163 z m 143.406773,-6.92572 c -2.58419,-3.11376 0.31079,-7.34343 9.02369,-13.18395 4.33512,-2.90596 11.53829,-8.19734 16.00704,-11.75862 4.46875,-3.56128 11.35217,-8.61324 15.29648,-11.22658 5.94655,-3.93993 7.49449,-4.48345 9.0625,-3.18212 4.60032,3.81792 2.38435,7.04838 -12.62506,18.40497 -18.04804,13.65573 -31.58454,22.85832 -33.62331,22.85832 -0.85498,0 -2.26858,-0.86041 -3.14134,-1.91202 z M 116.95341,836.66651 c -3.6718,-4.66794 -6.62623,-14.6065 -6.18073,-20.79174 0.36375,-5.05036 0.61979,-5.38753 4.09125,-5.38753 3.20009,0 3.84504,0.5944 4.74706,4.375 0.57412,2.40625 2.24712,8.12826 3.71778,12.71559 2.22869,6.95181 2.40143,8.66892 1.03738,10.3125 -2.33185,2.8097 -4.52475,2.44767 -7.41274,-1.22382 z m 47.27779,-1.24496 c -1.32106,-1.59177 -1.25678,-3.10874 0.35744,-8.4375 1.08244,-3.57324 2.33898,-9.30931 2.7923,-12.74681 1.76643,-13.3945 5.41739,-20.34697 9.80143,-18.66466 2.84696,1.09248 3.74442,4.91165 2.26101,9.62179 -0.70029,2.22358 -1.6297,6.85537 -2.06535,10.29287 -0.90035,7.10435 -4.06618,17.98377 -5.91076,20.3125 -1.70138,2.14792 -5.29548,1.96007 -7.23607,-0.37819 z"
         id="sun"
         inkscape:connector-curvature="0"
         sodipodi:nodetypes="sssssssssssssssssssssssssccsssscsssssssssssccscssccsssccssssssssssssssssscssssssssssscssssssssssssssssssssssss" />
      <path
         style="fill:#c33e0e"
         d="m 132.15235,897.51442 c 6.95416,-7.63506 13.20809,-9.09709 20.16607,-6.40171 10.06166,7.9671 11.4857,15.2585 -2.96622,21.95934 -23.40644,3.18379 -17.37513,-8.12844 -17.19985,-15.55763 z"
         id="path3457"
         inkscape:connector-curvature="0"
         sodipodi:nodetypes="cccc" />
      <path
         style="fill:#1eab34"
         d="m 131.37995,938.1078 c -0.37028,-0.96493 -0.39768,-2.8082 -0.0609,-4.09612 0.48334,-1.84828 -0.71172,-2.90111 -5.6716,-4.9966 -4.66643,-1.97151 -6.81141,-3.76096 -8.33303,-6.95183 -1.97476,-4.14111 -1.90975,-4.78671 1.79276,-17.80317 2.29967,-8.08471 4.86274,-14.45738 6.38517,-15.87574 4.85803,-10.84139 7.97656,-12.29546 13.10413,-13.49768 4.53027,-1.72241 16.07857,-1.61296 20.03537,0.18988 2.98077,1.35813 3.71333,2.77483 4.66768,9.02672 0.19864,1.30131 1.37424,2.98881 2.61244,3.75 1.82696,1.12313 4.16003,0.36354 12.37835,-4.03009 l 10.12708,-5.41408 3.16941,2.36631 c 5.20055,3.88277 7.93606,8.46649 8.60744,14.42295 0.79391,7.04354 -2.37975,10.91389 -8.94932,10.91389 -3.19295,0 -4.49378,0.63964 -5.08423,2.5 -2.69352,2.65201 -5.5731,2.83771 -8.06249,4.94579 -1.55101,1.34519 -5.16806,3.34251 -8.0379,4.43851 -4.91774,1.8781 -5.5363,1.85016 -10.75343,-0.48561 -3.04455,-1.36309 -5.96052,-2.21569 -6.47995,-1.89467 -0.51942,0.32103 -1.32148,2.67332 -1.78235,5.22733 -1.21263,6.72003 -2.38712,8.46904 -9.42039,14.02852 -6.70453,5.29963 -9.15522,6.07369 -10.24426,3.23569 z m 22.59327,-29.8016 c 2.51845,-2.01487 1.92077,-10.58569 -0.9375,-13.44396 -3.10753,-3.10753 -4.59259,-3.12018 -9.5759,-0.0816 -4.98127,3.03737 -6.08267,6.4322 -3.6273,11.18035 2.55728,4.94524 9.45992,6.09002 14.1407,2.34519 z"
         id="path3455"
         inkscape:connector-curvature="0"
         sodipodi:nodetypes="ccsssccsssscsssccsscsscccssscc" />
      <path
         style="fill:#2e376c"
         d="m 131.37995,938.1078 c -1.11105,-2.89533 0.66762,-7.46673 3.89207,-10.00308 6.26523,-4.92824 7.7637,-7.37612 7.7637,-12.68273 l 0,-5.21884 4.93167,0 c 5.77501,0 6.97719,1.86134 4.39696,6.80793 -0.99728,1.91188 -1.8167,4.49751 -1.82093,5.74584 -0.0128,3.77802 -2.29693,6.88058 -8.91921,12.1152 -6.70453,5.29962 -9.15522,6.07368 -10.24426,3.23568 z m 41.29787,-29.84701 c -4.092,-2.60891 -7.64758,-3.84752 -11.25,-3.91901 -4.81597,-0.0956 -5.33294,-0.42574 -6.03584,-3.85454 -0.4228,-2.0625 -1.18611,-4.73437 -1.69624,-5.9375 -1.4711,-3.46959 10.72169,-2.97722 18.71498,0.75575 14.07037,6.57104 18.47493,14.13318 9.375,16.09581 -2.1672,0.46742 -4.95874,-0.49515 -9.1079,-3.14051 z m -41.25754,-13.71105 -4.28282,-5.3125 0.76588,-10.89711 c 0.79912,-11.37009 2.93538,-15.83843 6.85338,-14.33495 1.52103,0.58367 1.79942,2.30535 1.35357,8.37085 -0.63841,8.68522 0.9725,12.91033 6.78806,17.80381 l 3.70242,3.11538 -3.06761,1.3977 c -1.68718,0.76873 -3.39325,2.24631 -3.79126,3.28351 -1.2268,3.19698 -3.85388,2.1152 -8.32162,-3.42669 z"
         id="path3453"
         inkscape:connector-curvature="0" />
    </g>
  </g>
</svg>
